<svg xmlns="http://www.w3.org/2000/svg" viewBox="0 0 320 70" fill="none">
  <!-- B -->
  <path d="M0 5h22c12 0 19 5 19 14.5 0 6-3.5 10-8.5 12 6 1.8 10 6.5 10 13 0 10.5-7.5 16-20 16H0V5zm21 22c5.5 0 8.5-2.8 8.5-7.5S26.5 12 21 12H11.5v15H21zm1 24c6 0 9.5-3 9.5-8s-3.5-8-9.5-8H11.5v16H22z" fill="#E8611A"/>
  <!-- O with lightning bolt -->
  <ellipse cx="80" cy="32.5" rx="28" ry="28" stroke="#E8611A" stroke-width="10" fill="none"/>
  <path d="M85 12L70 35h12L68 53l20-22H76l9-19z" fill="#E8611A"/>
  <!-- L -->
  <path d="M118 5h11.5v46H158v9.5h-40V5z" fill="#E8611A"/>
  <!-- T -->
  <path d="M160 5h45v9.5h-16.7v46H177V14.5h-17V5z" fill="#E8611A"/>
  <!-- INDUSTRIAL ENGINEERING SERVICES -->
  <text x="0" y="67" font-family="Arial, Helvetica, sans-serif" font-size="10.5" font-weight="500" letter-spacing="3.5" fill="#58595B">INDUSTRIAL ENGINEERING SERVICES</text>
</svg>
